<svg xmlns="http://www.w3.org/2000/svg" width="5000" height="900" viewBox="0 0 5000 900">
  <defs>
    <linearGradient id="n1" x2="1" y2="1"><stop stop-color="#020205"/><stop offset=".55" stop-color="#16253b"/><stop offset="1" stop-color="#e50914"/></linearGradient>
    <linearGradient id="n2" x2="0" y2="1"><stop stop-color="#180204"/><stop offset=".65" stop-color="#690910"/><stop offset="1" stop-color="#050505"/></linearGradient>
    <linearGradient id="n3"><stop stop-color="#020202"/><stop offset=".48" stop-color="#5b6470"/><stop offset=".5" stop-color="#e50914"/><stop offset=".52" stop-color="#111"/><stop offset="1" stop-color="#020202"/></linearGradient>
    <linearGradient id="n4" x2="1" y2="1"><stop stop-color="#130b20"/><stop offset=".6" stop-color="#1d4960"/><stop offset="1" stop-color="#d47454"/></linearGradient>
    <linearGradient id="n5" x2="0" y2="1"><stop stop-color="#283a4d"/><stop offset=".65" stop-color="#06080b"/><stop offset="1" stop-color="#42080c"/></linearGradient>
  </defs>
  <rect width="1000" height="900" fill="url(#n1)"/><circle cx="690" cy="360" r="170" fill="#dbe8ef" opacity=".18"/><path d="M0 900V570L250 410l140 130 240-260 370 310v310Z" fill="#07090d"/><rect x="180" y="300" width="38" height="470" fill="#d8eef5" opacity=".25"/>
  <g transform="translate(1000)"><rect width="1000" height="900" fill="url(#n2)"/><circle cx="500" cy="410" r="260" fill="none" stroke="#ff2b31" stroke-width="24" opacity=".5"/><circle cx="500" cy="410" r="140" fill="#070707"/><path d="M470 250h60v320h-60zM340 380h320v60H340z" fill="#b50810"/></g>
  <g transform="translate(2000)"><rect width="1000" height="900" fill="url(#n3)"/><path d="M0 690 350 500 470 590 630 300 1000 650v250H0Z" fill="#070707"/><path d="m515 0-80 355 95 90-55 455" fill="none" stroke="#e9e9e9" stroke-width="18" opacity=".7"/></g>
  <g transform="translate(3000)"><rect width="1000" height="900" fill="url(#n4)"/><circle cx="355" cy="385" r="155" fill="#09101c"/><circle cx="650" cy="385" r="155" fill="#1a0e13"/><path d="M260 900q90-310 190 0m100 0q100-310 190 0" fill="#07080c"/></g>
  <g transform="translate(4000)"><rect width="1000" height="900" fill="url(#n5)"/><path d="M160 160h680v530H160z" fill="#0b0d11" stroke="#788b9d" stroke-width="8"/><path d="M210 235h580v44H210zm0 95h420v34H210zm0 78h500v34H210z" fill="#e5eef5" opacity=".18"/><circle cx="740" cy="610" r="78" fill="#e50914" opacity=".65"/></g>
</svg>
