<svg xmlns="http://www.w3.org/2000/svg" viewBox="0 0 48 48" role="img" aria-label="WhatsApp">
  <circle cx="24" cy="24" r="21" fill="#25D366"/>
  <path fill="#fff" d="M34.6 13.8A15 15 0 0 0 11 31.9L8.9 39l7.3-1.9A15 15 0 0 0 34.6 13.8Zm-10.5 23a12.4 12.4 0 0 1-6.3-1.7l-.5-.3-4.3 1.1 1.1-4.2-.3-.5a12.4 12.4 0 1 1 10.3 5.6Z"/>
  <path fill="#fff" d="M31 27.7c-.4-.2-2.4-1.2-2.8-1.3-.4-.1-.7-.2-1 .2-.3.5-1.1 1.3-1.4 1.6-.3.3-.5.4-1 .2a10.2 10.2 0 0 1-3-1.8 11.3 11.3 0 0 1-2.1-2.6c-.2-.4 0-.7.2-.9l.7-.8.4-.8c.1-.3 0-.6 0-.8l-1.3-3c-.3-.8-.7-.7-1-.7h-.8c-.3 0-.8.1-1.2.6-.4.4-1.6 1.6-1.6 4s1.7 4.5 2 4.8c.2.3 3.4 5.2 8.2 7.2 1.1.5 2 .8 2.7 1 .9.3 1.8.2 2.5.1.8-.1 2.4-1 2.7-2 .4-1 .4-1.8.3-2-.1-.2-.4-.3-.8-.5Z"/>
</svg>
